<svg xmlns="http://www.w3.org/2000/svg" width="117.7mm" height="185.12mm" viewBox="0 0 333.63 524.76"><defs><style>.cls-1{fill:#d9e6b1;opacity:0.64;}.cls-2{fill:#b4c7a7;}.cls-3{fill:#688b7a;}.cls-4{fill:#7b6a58;}</style></defs><title>Tree</title><g id="Layer_2" data-name="Layer 2"><g id="Vrstva_1" data-name="Vrstva 1"><path class="cls-1" d="M165.25,330.16S-8.77,79.49,88.94,33.66C240.07-37.22,165.25,330.16,165.25,330.16Z"/><path class="cls-1" d="M235.35,247.62S116.62-30.17,255.57,12.18C306.74,27.77,235.35,247.62,235.35,247.62Z"/><path class="cls-1" d="M250.15,317.07S142.33,102.32,252.73,93C406.65,80,250.15,317.07,250.15,317.07Z"/><path class="cls-1" d="M99,242.5S-65.35,111,47.5,61.12,99,242.5,99,242.5Z"/><path class="cls-1" d="M106.43,374.14s-147.58-181-84.08-248.67S106.43,374.14,106.43,374.14Z"/><path class="cls-2" d="M94.57,374.18a12.48,12.48,0,0,1-1.3,1.14A15.44,15.44,0,0,0,94.57,374.18Z"/><path class="cls-2" d="M242.36,420.3c-6.43-17.38-6.08-38.54-2.48-58.83,8.31-15.64,18.67-32.38,29.33-49.74,28.59-46.56,61-99.34,58.61-145.53a54.71,54.71,0,0,0-2.36-12.84c4.19-32.37-3.66-56.55-23.52-72.14q-18-14.11-35.89-17c-7.38-11.62-19.26-20.87-35.5-26.35-19.71-6.65-36.74-5.5-49.9,3.11-21,13.74-26.49,37.74-27.77,45.84-9.4-34.63-24.09-58.32-42-66.73-11-5.14-22.43-3.75-32.29,3.92-12.87,10-25,33.08-26.25,69.31A63.94,63.94,0,0,0,45.52,107a101.46,101.46,0,0,0-20,17.68c-27.55,31.2,7,116,42.77,206.29.39,1,.78,1.94,1.17,2.91-1.57,62-42.94,95.4-43.38,95.72.43-.32,41.64-31.28,45-91.61q2.61,6.47,5.25,12.93c4.19,41.2,6.64,76.54-2.81,86.94,9.52-10.47,9-41.13,5.59-80.07,2.29,5.66,4.58,11.35,6.81,17.15,3.33,8.65,10.67,32.71,1.12,41,10.28-8.95,4.51-29.26.16-40.57-2.78-7.22-5.61-14.48-8.45-21.71-1-11.42-2.27-23.49-3.54-35.94-4.33-42.19-9-87.39-6.47-121.28,2.44,9.85,5,19.76,7.45,29.56,16.32,64.12,34.49,132.15,18.38,148.12,17.51-16.52,1.17-80.75-16.12-148.69-3-12-6.13-24.1-9.05-36.09,2.87-25.84,10.68-43.74,27.3-46.3,12.42-1.91,23.18.22,32.44,5.86a26.78,26.78,0,0,0-11-.45c-6.53,1.1-12.27,5.61-16.4,12.62-7.18,12.17-1.66,61.73,3.43,113.47,5.41,55,13.41,118.81,3.5,132.22,10.44-14.13,4.53-74.28-1.18-132.45-4.82-49.09-9.81-99.86-3-111.37,3.76-6.38,8.63-10.12,14.45-11.1,7.88-1.34,15.93,2.59,20.69,5.57a71.93,71.93,0,0,1,8.29,10.45c7.87,12,10.41,24.12,11.49,29.92q.06,8.56.06,17h1.19v-2.78h5q-.76-18.59-1.44-38.28h.07c0-.2-.06-.4-.08-.6-.06-1.68-.11-3.36-.17-5.06-.85-26.09-3.74-49.67-8.31-70.06,1.49-11.81,7.94-41.88,26.62-54.1,12.53-8.19,28.51-9.1,47.5-2.69,14.82,5,25.9,12.55,33.07,22.5a59.36,59.36,0,0,0-32.79,6.1c-20.08,9.77-33.9,28.28-38.68,36.84A90.11,90.11,0,0,0,184,119c-8.74,17.31-15.25,42.3-16.87,78.13-.15.66-.23,1.1-.26,1.23l.21.05c-.08,1.95-.16,3.9-.21,5.91-.07,2.61-.13,5.18-.19,7.73h8c.09-4,.18-8,.29-12s.71-8.27.93-12.12c3.21-11.23,8.71-27.7,24.19-34.67,9.78-4.41,21.26-2.69,34.11,5.12A54.19,54.19,0,0,1,248,170.1c-15,38.14-29.44,97.63-34.56,146.26-11.7,33.41-21.5,74.07-18.14,97.26l.45,1.49c-3.09-21.35,5.85-58.43,16.92-90.6a261.16,261.16,0,0,0-.91,36l0,.4a285.56,285.56,0,0,1,2-39.51c6.95-19.75,14.6-37.36,20.59-47.87,14.13-24.8,42.37-73.46,16.84-105.15a191.42,191.42,0,0,1,8.55-18.47c5.29-9.77,15.08-30.82,15.24-52.87,23,13.32,42.22,36.3,48.44,57.62q-7.55,53.2-60.75,137.88l-1.26,2c-8,12.74-18.12,37.92-22.86,64.89-17.2,32.79-25.12,60.66-8.35,80.34C215.11,422.1,222,396.26,237.52,366c-2.7,19.25-2.39,39,3.67,55.37,6.39,17.28,18.43,28.79,35.78,34.23C260.35,450.38,248.49,436.87,242.36,420.3ZM52.22,101.25c0,.6,0,1.19,0,1.79l-1.2.65C51.42,102.86,51.81,102,52.22,101.25Zm-25,25A101.29,101.29,0,0,1,44.28,110.7C31.75,151.56,46.2,215.27,57.56,265.35c6.13,27,11.94,50.57,11.94,64.94C34.06,240.81.65,156.34,27.23,126.24ZM72.89,318c1,9.57,2,19.09,3,28.35l-4.63-11.71c0-1.5.1-3,.1-4.54,0-14.63-5.32-38.1-11.49-65.28-11.76-51.84-25.9-118-10.32-157.57.93-.56,1.86-1.09,2.8-1.61a236.11,236.11,0,0,0,4.26,37c2.86,14.9,6.55,30.9,10.52,47.17C63.3,224.67,68.27,273,72.89,318ZM160.1,167.34q.32,9.75.49,19.22a90.28,90.28,0,0,0-10.09-21.29c-8.93-13.6-25.59-28.88-54.17-24.48-16.52,2.54-24.87,18.81-28.41,42.56-3.41-14.2-6.55-28.11-9.06-41.16a231.31,231.31,0,0,1-4.27-37.73c15.35-7.74,31.76-9.29,48.08-4.23,27.05,8.39,49.84,34.14,57.28,63.4C160,164.87,160.06,166.09,160.1,167.34Zm-.62-13.09C149.88,128,128.4,105.76,103.36,98a65,65,0,0,0-48.81,3.86q0-2.42,0-4.76A48,48,0,0,1,72.33,80c16.17-8.93,28.85-8.41,42.08-2.52,25.43,11.33,40.15,56.55,44.83,73.36C159.33,152,159.41,153.09,159.48,154.24ZM156.75,126c-5.91-16.61-18.57-43.59-40.79-53.48-13.93-6.2-29.53-4.63-46.37,4.67A48.37,48.37,0,0,0,54.82,89.81c1.95-32.53,13.3-52.74,25.27-62.05,9.14-7.1,17.63-8.83,27.76-4.08C131.3,34.67,149.39,71.39,156.75,126Zm79.38-54.22a55.45,55.45,0,0,1,29.62-3.49,49.43,49.43,0,0,1,3,6.23,57.49,57.49,0,0,1,3.73,16.8c-11.25-6.13-23.25-9.86-35-9.86h-.71a52.87,52.87,0,0,0-26,7.26A79.89,79.89,0,0,1,236.13,71.82Zm-3.81,200.59c-5.25,9.21-11.56,23.66-17.51,40.16,6.14-47.43,20.47-103.74,34.85-140.37C272,202.75,245.89,248.61,232.33,272.41ZM257.7,148.83a184.32,184.32,0,0,0-8.19,17.6,57.68,57.68,0,0,0-13.08-10.65c-13.55-8.23-28.66-11.12-39.19-6.38-10.27,4.63-17.4,14.81-22.17,24.7,8.62-76.78,41.42-88.12,61.66-88.38h.23c12,0,24.27,3.81,35.71,10C272.9,117.75,263,139.06,257.7,148.83Zm17.19-56.11a60.44,60.44,0,0,0-4-19c-.65-1.66-1.4-3.27-2.21-4.86q16,3.37,32.23,16.08,27.47,21.55,23.15,64.26C316.27,128,297.24,105.71,274.89,92.73Zm-11.5,203.09,1.26-2c10.86-17.33,36.28-57.92,50.9-100.22a215.38,215.38,0,0,0,9-34.3,47.84,47.84,0,0,1,.92,7c2.34,45.46-29.86,97.91-58.27,144.19-9.38,15.28-18.4,30-25.94,43.84C246.55,329.88,256.05,307.54,263.38,295.81Z"/><path class="cls-2" d="M211.81,360.94l.16,3.69C211.9,363.43,211.85,362.19,211.81,360.94Z"/><path class="cls-2" d="M114.74,390.66s5.62,8.75,2.94,9.57S114.74,390.66,114.74,390.66Z"/><path class="cls-2" d="M114.74,358.71s5.62,8.75,2.94,9.57S114.74,358.71,114.74,358.71Z"/><path class="cls-2" d="M114.41,331.06s5.62,8.76,2.94,9.57S114.41,331.06,114.41,331.06Z"/><path class="cls-2" d="M111.29,345.18s-1.25,10.33-3.83,9.25S111.29,345.18,111.29,345.18Z"/><path class="cls-2" d="M91.37,410.43s-4.75,11.81-7.28,9.93S91.37,410.43,91.37,410.43Z"/><path class="cls-2" d="M76.28,433.4s-4.31,12-6.9,10.2S76.28,433.4,76.28,433.4Z"/><path class="cls-2" d="M194.93,409.38s6.46,11,3.43,11.82S194.93,409.38,194.93,409.38Z"/><path class="cls-2" d="M197,392.43s6.46,11,3.43,11.83S197,392.43,197,392.43Z"/><path class="cls-2" d="M196.23,376.56s-1.88,12.59-4.77,11.35S196.23,376.56,196.23,376.56Z"/><path class="cls-2" d="M201.65,364.63s5.22,11.61,2.12,12.13S201.65,364.63,201.65,364.63Z"/><path class="cls-2" d="M205,341.49s-4.36,12-6.95,10.16S205,341.49,205,341.49Z"/><path class="cls-2" d="M211.2,356.25s4,12.07.91,12.28S211.2,356.25,211.2,356.25Z"/><path class="cls-2" d="M58.9,388.12s.65,12.71-2.43,12.07S58.9,388.12,58.9,388.12Z"/><path class="cls-2" d="M52.94,393.19s-6.68,10.84-8.85,8.56S52.94,393.19,52.94,393.19Z"/><path class="cls-2" d="M110.55,300s6,8.58,3.85,9.43S110.55,300,110.55,300Z"/><path class="cls-2" d="M104.48,277.48s1.21,10.56-1.8,10S104.48,277.48,104.48,277.48Z"/><path class="cls-2" d="M109.28,271s1.72,10.49,4.5,9.14S109.28,271,109.28,271Z"/><path class="cls-2" d="M102.49,260.27s-6.17,8.66-3.25,9.66S102.49,260.27,102.49,260.27Z"/><path class="cls-2" d="M106.23,300s2.33,10.22,0,10.19S106.23,300,106.23,300Z"/><path class="cls-2" d="M105.26,246.81s7,7.78,5,8.88S105.26,246.81,105.26,246.81Z"/><path class="cls-2" d="M100.51,235s.11,10.48-2.16,10S100.51,235,100.51,235Z"/><path class="cls-2" d="M98.27,209.1s.44,10.47-1.84,10S98.27,209.1,98.27,209.1Z"/><path class="cls-2" d="M101.84,195.43s6.15,8.49,4,9.37S101.84,195.43,101.84,195.43Z"/><path class="cls-2" d="M97.8,179.78s-.77,10.46-3,9.74S97.8,179.78,97.8,179.78Z"/><path class="cls-2" d="M103.47,157.33s-7.78,7-8.88,5S103.47,157.33,103.47,157.33Z"/><path class="cls-2" d="M114,148.4s-9.37,4.71-9.89,2.44S114,148.4,114,148.4Z"/><path class="cls-2" d="M102.9,173.28s6.28,8.4,4.14,9.31S102.9,173.28,102.9,173.28Z"/><path class="cls-2" d="M111.3,157s-6,8.54-4.13,9.31S111.3,157,111.3,157Z"/><path class="cls-2" d="M131,154.14s-10.42.61-9.86,2.55S131,154.14,131,154.14Z"/><path class="cls-2" d="M151.14,161s-5.51-8.86-6.95-7.45S151.14,161,151.14,161Z"/><path class="cls-2" d="M104.07,224.33s6,8.58,3.85,9.43S104.07,224.33,104.07,224.33Z"/><path class="cls-2" d="M108.49,319.69s1.66,10.35-.66,10.17S108.49,319.69,108.49,319.69Z"/><path class="cls-2" d="M49.76,403.47s.32,12.73-2.74,12S49.76,403.47,49.76,403.47Z"/><path class="cls-2" d="M43.06,410.2s-9.16,8.84-10.7,6.1S43.06,410.2,43.06,410.2Z"/><path class="cls-2" d="M37.65,418.19s-1.91,12.59-4.8,11.34S37.65,418.19,37.65,418.19Z"/><path class="cls-2" d="M79.32,404.38s.67,12.71-2.41,12.07S79.32,404.38,79.32,404.38Z"/><path class="cls-2" d="M66.43,368.33s3.64,12.2.49,12.3S66.43,368.33,66.43,368.33Z"/><path class="cls-2" d="M67.1,347.17s-3,12.37-5.77,10.88S67.1,347.17,67.1,347.17Z"/><path class="cls-2" d="M63.25,320.35s5.27,11.59,2.16,12.12S63.25,320.35,63.25,320.35Z"/><path class="cls-2" d="M51.59,292.33s4,12.1.82,12.29S51.59,292.33,51.59,292.33Z"/><path class="cls-2" d="M57.41,298.47s10,7.94,7.43,9.82S57.41,298.47,57.41,298.47Z"/><path class="cls-2" d="M47.82,273s10,7.94,7.43,9.82S47.82,273,47.82,273Z"/><path class="cls-2" d="M40.46,260.79s4.88,11.76,1.77,12.19S40.46,260.79,40.46,260.79Z"/><path class="cls-2" d="M37.24,243.11s9.77,8.16,7.2,10S37.24,243.11,37.24,243.11Z"/><path class="cls-2" d="M30,220.62s9.77,8.17,7.2,10S30,220.62,30,220.62Z"/><path class="cls-2" d="M21.27,185.7s9.77,8.16,7.21,10S21.27,185.7,21.27,185.7Z"/><path class="cls-2" d="M18.89,162.76s7,10.63,4,11.63S18.89,162.76,18.89,162.76Z"/><path class="cls-2" d="M15.12,147.12s-1.72,12.61-4.63,11.41S15.12,147.12,15.12,147.12Z"/><path class="cls-2" d="M31.54,116.54s-8.74,9.26-10.4,6.59S31.54,116.54,31.54,116.54Z"/><path class="cls-2" d="M24,131.84s2.72,12.44-.42,12.3S24,131.84,24,131.84Z"/><path class="cls-2" d="M17,179.52s2.5,12.48-.65,12.3S17,179.52,17,179.52Z"/><path class="cls-2" d="M30.74,235s5.22,11.61,2.11,12.13S30.74,235,30.74,235Z"/><path class="cls-2" d="M23.63,209.91s3.22,12.32.08,12.31S23.63,209.91,23.63,209.91Z"/><path class="cls-2" d="M65,286.63s7.92,10,5,11.24S65,286.63,65,286.63Z"/><path class="cls-2" d="M71.5,342.43S77,353.89,74,354.49,71.5,342.43,71.5,342.43Z"/><path class="cls-2" d="M60.09,378.49s-4.75,11.81-7.27,9.93S60.09,378.49,60.09,378.49Z"/><path class="cls-2" d="M225.68,432.14s8.23,9.72,5.38,11.07S225.68,432.14,225.68,432.14Z"/><path class="cls-2" d="M269.46,452.49s12.41,2.86,10.94,5.64S269.46,452.49,269.46,452.49Z"/><path class="cls-2" d="M258.58,443.83s12.67-1.29,12.18,1.82S258.58,443.83,258.58,443.83Z"/><path class="cls-2" d="M246,426.83s11.38,5.71,9.3,8.07S246,426.83,246,426.83Z"/><path class="cls-2" d="M239.57,406.65s11.64,5.16,9.67,7.62S239.57,406.65,239.57,406.65Z"/><path class="cls-2" d="M239.29,370.66S246,381.47,243,382.4,239.29,370.66,239.29,370.66Z"/><path class="cls-2" d="M246.8,434.45s7.6,10.21,4.68,11.39S246.8,434.45,246.8,434.45Z"/><path class="cls-2" d="M239.5,419.31s4,12.09.84,12.28S239.5,419.31,239.5,419.31Z"/><path class="cls-2" d="M235,394.64s.91,12.7-2.19,12.12S235,394.64,235,394.64Z"/><path class="cls-2" d="M221.36,422.16s3.86,12.13.72,12.29S221.36,422.16,221.36,422.16Z"/><path class="cls-2" d="M223.23,405.48s5.45,11.51,2.35,12.09S223.23,405.48,223.23,405.48Z"/><path class="cls-2" d="M225.23,385.26s-3.46,12.25-6.17,10.65S225.23,385.26,225.23,385.26Z"/><path class="cls-2" d="M233.62,367s-6.5,11-8.71,8.71S233.62,367,233.62,367Z"/><path class="cls-2" d="M250.51,343.37s-.2,12.73-3.23,11.88S250.51,343.37,250.51,343.37Z"/><path class="cls-2" d="M243.3,337.28s-4.66,11.85-7.2,10S243.3,337.28,243.3,337.28Z"/><path class="cls-2" d="M258.06,297.71s-4.06,10.33-6.28,8.7S258.06,297.71,258.06,297.71Z"/><path class="cls-2" d="M213.36,340.61s5.53,11.47,2.43,12.07S213.36,340.61,213.36,340.61Z"/><path class="cls-2" d="M214.21,323.63s5.64,11.42,2.55,12S214.21,323.63,214.21,323.63Z"/><path class="cls-2" d="M211.86,318.53s-4.66,11.85-7.2,10S211.86,318.53,211.86,318.53Z"/><path class="cls-2" d="M224.4,247.46s-3.21,12.32-6,10.77S224.4,247.46,224.4,247.46Z"/><path class="cls-2" d="M224.18,263.07s3.47,12.25.32,12.31S224.18,263.07,224.18,263.07Z"/><path class="cls-2" d="M230.87,235.15s3.47,12.25.32,12.31S230.87,235.15,230.87,235.15Z"/><path class="cls-2" d="M230.45,220.94s-2.87,12.41-5.66,10.94S230.45,220.94,230.45,220.94Z"/><path class="cls-2" d="M237.62,208.62s3,12.38-.17,12.31S237.62,208.62,237.62,208.62Z"/><path class="cls-2" d="M239.52,191.31s-5.27,11.6-7.71,9.6S239.52,191.31,239.52,191.31Z"/><path class="cls-2" d="M246.33,181.78s3.11,12.35,0,12.31S246.33,181.78,246.33,181.78Z"/><path class="cls-2" d="M262.75,145.65s3.11,12.35,0,12.32S262.75,145.65,262.75,145.65Z"/><path class="cls-2" d="M270.9,126.84s3.11,12.35,0,12.32S270.9,126.84,270.9,126.84Z"/><path class="cls-2" d="M274.86,102.93s6.15,11.15,3.09,11.92S274.86,102.93,274.86,102.93Z"/><path class="cls-2" d="M265.91,68.73s4.32,12,1.18,12.26S265.91,68.73,265.91,68.73Z"/><path class="cls-2" d="M270.87,110.75s-1.74,12.62-4.65,11.4S270.87,110.75,270.87,110.75Z"/><path class="cls-2" d="M264.12,133s-5,11.7-7.51,9.76S264.12,133,264.12,133Z"/><path class="cls-2" d="M241,45.93s10.49,7.22,8.1,9.28S241,45.93,241,45.93Z"/><path class="cls-2" d="M219.79,39.08s11.65,5.14,9.69,7.61S219.79,39.08,219.79,39.08Z"/><path class="cls-2" d="M211.44,33.32s11.65-5.15,12.15-2S211.44,33.32,211.44,33.32Z"/><path class="cls-2" d="M183.73,37.39s6.66-10.85,8.84-8.58S183.73,37.39,183.73,37.39Z"/><path class="cls-2" d="M175,51.8s11.85-4.67,12.22-1.54S175,51.8,175,51.8Z"/><path class="cls-2" d="M163.56,72s9.39-8.54,10.77-6S163.56,72,163.56,72Z"/><path class="cls-2" d="M156.53,91.62s6.35-11,8.45-9S156.53,91.62,156.53,91.62Z"/><path class="cls-2" d="M161.95,58.23S162,45.5,165,46.3,161.95,58.23,161.95,58.23Z"/><path class="cls-2" d="M202.1,38.31s10.49,7.23,8.1,9.28S202.1,38.31,202.1,38.31Z"/><path class="cls-2" d="M252.74,167.39s12,4.18,10.27,6.79S252.74,167.39,252.74,167.39Z"/><path class="cls-2" d="M251.09,175.63s3.11,12.35,0,12.32S251.09,175.63,251.09,175.63Z"/><path class="cls-2" d="M232.46,158.51s9.45,8.54,6.81,10.26S232.46,158.51,232.46,158.51Z"/><path class="cls-2" d="M218.16,148.24s11.45-5.57,12.06-2.48S218.16,148.24,218.16,148.24Z"/><path class="cls-2" d="M232.61,152.62s12.53-2.29,12.29.85S232.61,152.62,232.61,152.62Z"/><path class="cls-2" d="M195.2,149.43s7-10.63,9.11-8.28S195.2,149.43,195.2,149.43Z"/><path class="cls-2" d="M207.3,151.17s12.51,2.37,11.16,5.22S207.3,151.17,207.3,151.17Z"/><path class="cls-2" d="M214.68,298.53s-2.14,12.55-5,11.25S214.68,298.53,214.68,298.53Z"/><path class="cls-2" d="M218.78,272.67s-4.66,11.85-7.2,10S218.78,272.67,218.78,272.67Z"/><path class="cls-2" d="M228.4,277.91s-5.12,11.66-7.58,9.7S228.4,277.91,228.4,277.91Z"/><path class="cls-2" d="M237.68,270.53s-.22,12.73-3.25,11.88S237.68,270.53,237.68,270.53Z"/><path class="cls-2" d="M225.91,292.37s3,12.38-.15,12.31S225.91,292.37,225.91,292.37Z"/><path class="cls-2" d="M220.17,306.58s1.14,12.68-2,12.16S220.17,306.58,220.17,306.58Z"/><path class="cls-2" d="M247.6,250.94s.85,12.71-2.24,12.11S247.6,250.94,247.6,250.94Z"/><path class="cls-2" d="M250.6,234.5s-6.63,10.87-8.81,8.6S250.6,234.5,250.6,234.5Z"/><path class="cls-2" d="M257.61,200.06s.18,12.73-2.87,12S257.61,200.06,257.61,200.06Z"/><path class="cls-2" d="M258.89,222.21s4,12.1.81,12.29S258.89,222.21,258.89,222.21Z"/><path class="cls-2" d="M260.83,185.9s8.79,9.21,6,10.73S260.83,185.9,260.83,185.9Z"/><path class="cls-2" d="M240.07,256.84s-7.35,10.4-9.37,8S240.07,256.84,240.07,256.84Z"/><path class="cls-2" d="M269.91,278.47s-6.53,9-8.27,6.84S269.91,278.47,269.91,278.47Z"/><path class="cls-2" d="M265.67,293.34s-.26,11.09-2.89,10.33S265.67,293.34,265.67,293.34Z"/><path class="cls-2" d="M268.5,317.76s-.29,12.73-3.32,11.86S268.5,317.76,268.5,317.76Z"/><path class="cls-2" d="M285.56,287.22s-.29,12.73-3.32,11.86S285.56,287.22,285.56,287.22Z"/><path class="cls-2" d="M296.61,266.83s1,12.7-2.11,12.13S296.61,266.83,296.61,266.83Z"/><path class="cls-2" d="M306.54,249.4s1,12.7-2.11,12.13S306.54,249.4,306.54,249.4Z"/><path class="cls-2" d="M286.29,258.64s.86,11.06-1.84,10.57S286.29,258.64,286.29,258.64Z"/><path class="cls-2" d="M295.4,240.56s.86,11.06-1.84,10.57S295.4,240.56,295.4,240.56Z"/><path class="cls-2" d="M316.68,224.27s4.51,11.91,1.38,12.24S316.68,224.27,316.68,224.27Z"/><path class="cls-2" d="M323.6,204s3.42,12.26.27,12.31S323.6,204,323.6,204Z"/><path class="cls-2" d="M328.75,178.18s6.12,11.16,3.07,11.92S328.75,178.18,328.75,178.18Z"/><path class="cls-2" d="M327.5,156.64s8.37,9.6,5.54,11S327.5,156.64,327.5,156.64Z"/><path class="cls-2" d="M317.68,178.7s-3.36,10.57-5.68,9.1S317.68,178.7,317.68,178.7Z"/><path class="cls-2" d="M321.73,163.13s-3.36,10.58-5.68,9.1S321.73,163.13,321.73,163.13Z"/><path class="cls-2" d="M311.28,131.93s5.38,11.54,2.28,12.1S311.28,131.93,311.28,131.93Z"/><path class="cls-2" d="M303.94,114.39s12,4.32,10.19,6.91S303.94,114.39,303.94,114.39Z"/><path class="cls-2" d="M293.6,112.11s6.61,10.89,3.59,11.78S293.6,112.11,293.6,112.11Z"/><path class="cls-2" d="M283.64,96.32s12.71.8,11.72,3.79S283.64,96.32,283.64,96.32Z"/><path class="cls-2" d="M245.14,80.85s10.64-7,11.64-4S245.14,80.85,245.14,80.85Z"/><path class="cls-2" d="M252.83,89.06s12.14,3.84,10.46,6.5S252.83,89.06,252.83,89.06Z"/><path class="cls-2" d="M227.15,87s12.14,3.84,10.46,6.5S227.15,87,227.15,87Z"/><path class="cls-2" d="M198.68,105.75s10.84-6.69,11.75-3.67S198.68,105.75,198.68,105.75Z"/><path class="cls-2" d="M327.71,131.17s7.21,10.5,4.25,11.56S327.71,131.17,327.71,131.17Z"/><path class="cls-2" d="M323.77,111.59s10.1,7.76,7.61,9.68S323.77,111.59,323.77,111.59Z"/><path class="cls-2" d="M316.4,94.57s11.54,5.4,9.52,7.81S316.4,94.57,316.4,94.57Z"/><path class="cls-2" d="M298.6,77.78s12.55-2.17,12.28,1S298.6,77.78,298.6,77.78Z"/><path class="cls-2" d="M273.11,65.39s11.77-4.87,12.19-1.75S273.11,65.39,273.11,65.39Z"/><path class="cls-2" d="M254.66,50.17s12.71-.74,12.09,2.35S254.66,50.17,254.66,50.17Z"/><path class="cls-2" d="M318.7,110.39s4.73,11.82,1.61,12.21S318.7,110.39,318.7,110.39Z"/><path class="cls-2" d="M307.11,91.61s4.74,11.82,1.61,12.21S307.11,91.61,307.11,91.61Z"/><path class="cls-2" d="M283.64,74.86s9.8,8.13,7.24,10S283.64,74.86,283.64,74.86Z"/><path class="cls-2" d="M315.44,195.79s2.07,10.9-.67,10.71S315.44,195.79,315.44,195.79Z"/><path class="cls-2" d="M277,292.12s-7.06,10.6-9.15,8.24S277,292.12,277,292.12Z"/><path class="cls-2" d="M288.94,272.91s-7.06,10.6-9.15,8.24S288.94,272.91,288.94,272.91Z"/><path class="cls-2" d="M278.77,263.09s-6.15,9.24-8,7.18S278.77,263.09,278.77,263.09Z"/><path class="cls-2" d="M289.42,245.36s-6.05,9.3-7.9,7.27S289.42,245.36,289.42,245.36Z"/><path class="cls-2" d="M301.57,220.94s-6.05,9.3-7.9,7.27S301.57,220.94,301.57,220.94Z"/><path class="cls-2" d="M309.78,201.14s-6.05,9.3-7.9,7.27S309.78,201.14,309.78,201.14Z"/><path class="cls-2" d="M298.83,254.08s-7.06,10.6-9.15,8.24S298.83,254.08,298.83,254.08Z"/><path class="cls-2" d="M309.78,232s-7.06,10.6-9.15,8.24S309.78,232,309.78,232Z"/><path class="cls-2" d="M308.66,212.71s1.2,11-1.52,10.62S308.66,212.71,308.66,212.71Z"/><path class="cls-2" d="M258.79,323.71s-7.06,10.6-9.15,8.24S258.79,323.71,258.79,323.71Z"/><path class="cls-2" d="M79.93,421.67s5.33,11.57,2.23,12.11S79.93,421.67,79.93,421.67Z"/><path class="cls-2" d="M93.52,392.43s7.31,10.43,4.36,11.52S93.52,392.43,93.52,392.43Z"/><path class="cls-2" d="M112.18,380.47s-1.2,9.75-3.85,8.58S112.18,380.47,112.18,380.47Z"/><path class="cls-2" d="M81.09,380.47s7.42,10.35,4.48,11.47S81.09,380.47,81.09,380.47Z"/><path class="cls-2" d="M80.36,355.38s10.74,6.84,8.43,9S80.36,355.38,80.36,355.38Z"/><path class="cls-2" d="M77,332.49s8.69,9.3,5.93,10.79S77,332.49,77,332.49Z"/><path class="cls-2" d="M74.89,307.54s8.69,9.3,5.92,10.8S74.89,307.54,74.89,307.54Z"/><path class="cls-2" d="M72.86,282.06s8.69,9.3,5.92,10.79S72.86,282.06,72.86,282.06Z"/><path class="cls-2" d="M70.48,255.33s8.69,9.3,5.92,10.8S70.48,255.33,70.48,255.33Z"/><path class="cls-2" d="M68.7,231.83S76,242.28,73,243.36,68.7,231.83,68.7,231.83Z"/><path class="cls-2" d="M67.3,266.89s1.68,12.62-1.44,12.23S67.3,266.89,67.3,266.89Z"/><path class="cls-2" d="M60.87,282.06s1.68,12.62-1.44,12.23S60.87,282.06,60.87,282.06Z"/><path class="cls-2" d="M54.28,254.15s1.68,12.62-1.44,12.23S54.28,254.15,54.28,254.15Z"/><path class="cls-2" d="M48.45,225.71s1.68,12.62-1.44,12.23S48.45,225.71,48.45,225.71Z"/><path class="cls-2" d="M41.21,184.67s1.68,12.62-1.44,12.23S41.21,184.67,41.21,184.67Z"/><path class="cls-2" d="M53.23,232.89s8.5,9.49,5.69,10.92S53.23,232.89,53.23,232.89Z"/><path class="cls-2" d="M47.64,200.14s8.5,9.49,5.69,10.92S47.64,200.14,47.64,200.14Z"/><path class="cls-2" d="M65.3,240s1.68,12.62-1.44,12.23S65.3,240,65.3,240Z"/><path class="cls-2" d="M92.09,291.75s3.13,12.34,0,12.31S92.09,291.75,92.09,291.75Z"/><path class="cls-2" d="M86.2,270s3.13,12.34,0,12.31S86.2,270,86.2,270Z"/><path class="cls-2" d="M81.05,246.76s3.13,12.34,0,12.31S81.05,246.76,81.05,246.76Z"/><path class="cls-2" d="M72.82,216.06s3.13,12.34,0,12.31S72.82,216.06,72.82,216.06Z"/><path class="cls-2" d="M92.41,273.68s8.76,9.24,6,10.75S92.41,273.68,92.41,273.68Z"/><path class="cls-2" d="M86.18,252.71s8.76,9.24,6,10.75S86.18,252.71,86.18,252.71Z"/><path class="cls-2" d="M81.51,228.37s8.76,9.24,6,10.75S81.51,228.37,81.51,228.37Z"/><path class="cls-2" d="M70.94,194.62s8.76,9.24,6,10.75S70.94,194.62,70.94,194.62Z"/><path class="cls-2" d="M62.48,155.46s8.76,9.24,6,10.75S62.48,155.46,62.48,155.46Z"/><path class="cls-2" d="M62.59,171.83s2,12.57-1.08,12.26S62.59,171.83,62.59,171.83Z"/><path class="cls-2" d="M56.81,145.36S58.12,158,55,157.54,56.81,145.36,56.81,145.36Z"/><path class="cls-2" d="M51.81,120.89s-.22,12.73-3.25,11.88S51.81,120.89,51.81,120.89Z"/><path class="cls-2" d="M56.83,109s8.76,9.24,6,10.75S56.83,109,56.83,109Z"/><path class="cls-2" d="M77.5,99.35s-9.67,8.29-11,5.45S77.5,99.35,77.5,99.35Z"/><path class="cls-2" d="M100.54,100.06s-11.64,5.17-12.14,2.06S100.54,100.06,100.54,100.06Z"/><path class="cls-2" d="M89.74,94.19s-12.31-3.24-10.76-6S89.74,94.19,89.74,94.19Z"/><path class="cls-2" d="M116,101.71s-11.42-5.63-9.36-8S116,101.71,116,101.71Z"/><path class="cls-2" d="M132.9,113.4s-8.56-9.43-5.77-10.88S132.9,113.4,132.9,113.4Z"/><path class="cls-2" d="M118.85,108.22s-12.08,4-12.28.9S118.85,108.22,118.85,108.22Z"/><path class="cls-2" d="M138.13,124.77s-12.71-.8-11.71-3.79S138.13,124.77,138.13,124.77Z"/><path class="cls-2" d="M148.81,139s-12.71-.8-11.71-3.79S148.81,139,148.81,139Z"/><path class="cls-2" d="M78.14,30.91S75.55,43.37,72.73,42,78.14,30.91,78.14,30.91Z"/><path class="cls-2" d="M99,21.91s-8.83,9.17-10.47,6.48S99,21.91,99,21.91Z"/><path class="cls-2" d="M119.46,33.7s-12.71-.82-11.71-3.81S119.46,33.7,119.46,33.7Z"/><path class="cls-2" d="M134,51.65s-11.91-4.5-10.08-7.06S134,51.65,134,51.65Z"/><path class="cls-2" d="M141.69,69.31s-11.91-4.5-10.08-7.06S141.69,69.31,141.69,69.31Z"/><path class="cls-2" d="M64.71,39.13s-6.82,10.75-9,8.44S64.71,39.13,64.71,39.13Z"/><path class="cls-2" d="M86,19.49S74,23.93,73.72,20.79,86,19.49,86,19.49Z"/><path class="cls-2" d="M114.57,20.42s-11.73-5-9.8-7.45S114.57,20.42,114.57,20.42Z"/><path class="cls-2" d="M133.94,39.36s-7.29-10.44-4.33-11.52S133.94,39.36,133.94,39.36Z"/><path class="cls-2" d="M144.05,56.8S139.24,45,142.37,44.6,144.05,56.8,144.05,56.8Z"/><path class="cls-2" d="M63,54.48s3.48,12.25.33,12.31S63,54.48,63,54.48Z"/><path class="cls-2" d="M51.81,73.59S50.19,86.21,47.27,85,51.81,73.59,51.81,73.59Z"/><path class="cls-2" d="M73.44,80.53S67.16,91.6,64.9,89.4,73.44,80.53,73.44,80.53Z"/><path class="cls-2" d="M81.32,70.34S69.09,73.86,69,70.71,81.32,70.34,81.32,70.34Z"/><path class="cls-2" d="M115.21,70.57s-11.87-4.59-10-7.15S115.21,70.57,115.21,70.57Z"/><path class="cls-2" d="M137.32,86.62S131,75.56,134.06,74.75,137.32,86.62,137.32,86.62Z"/><path class="cls-2" d="M99.71,74.19S89.62,81.94,88.4,79,99.71,74.19,99.71,74.19Z"/><path class="cls-2" d="M123.57,84.23S111,86.28,111.31,83.14,123.57,84.23,123.57,84.23Z"/><path class="cls-2" d="M139.29,105.39S128,99.5,130.12,97.17,139.29,105.39,139.29,105.39Z"/><path class="cls-2" d="M60.09,132.55s8.76,9.24,6,10.75S60.09,132.55,60.09,132.55Z"/><path class="cls-2" d="M97.2,321.53s.91,12.7-2.18,12.12S97.2,321.53,97.2,321.53Z"/><path class="cls-2" d="M99.62,343.86s.47,12.72-2.61,12S99.62,343.86,99.62,343.86Z"/><path class="cls-2" d="M102,333.73s7.62,10.2,4.69,11.38S102,333.73,102,333.73Z"/><path class="cls-2" d="M97.43,306.43s8.32,9.64,5.49,11S97.43,306.43,97.43,306.43Z"/><path class="cls-2" d="M101.7,361.24s3.13,12.34,0,12.31S101.7,361.24,101.7,361.24Z"/><path class="cls-2" d="M75.68,364.24s3,12.36-.1,12.31S75.68,364.24,75.68,364.24Z"/><path class="cls-2" d="M98.31,369.42s-4.78,11.8-7.3,9.91S98.31,369.42,98.31,369.42Z"/><path class="cls-2" d="M29.12,426.65s-7,10.64-9.1,8.29S29.12,426.65,29.12,426.65Z"/><path class="cls-2" d="M110,404.12s-8.12,9.61-6.15,10.66S110,404.12,110,404.12Z"/><path class="cls-2" d="M157.63,324.41l-.3-2.3q-11.41-88.07.09-137.61a6.29,6.29,0,0,1-1.5-1.76,214.39,214.39,0,0,0-5,29.63c-4.48,43.61,1.55,90.15,4.13,110l.3,2.3c1.73,13.44,1,37.21-4.51,61.13-1-15.43-3-32.19-5.14-49.64-6.36-52.83-13.57-112.7,7.65-152.15.56-1,1.21-2.06,1.88-3.08a7.9,7.9,0,0,1-.25-1.68,6.4,6.4,0,0,1-.76-1,45.7,45.7,0,0,0-2.94,4.67c-21.55,40.08-14.3,100.33-7.9,153.48,2.38,19.81,4.76,39,5.74,56.28-5.25,19.52-13.82,38.47-26.95,51.28-12.52,12.21-29,19.35-46.24,17.14,18,2.3,33.79-3,46.85-15.71,12.39-12.09,21-29.49,26.58-47.71,1.36,33.27-3.21,59.1-24.34,68.63,23.48-10.61,28-38.63,26.15-74.86C158.16,365.58,159.51,339,157.63,324.41Z"/><path class="cls-2" d="M132.3,461.4s-11.55,5.26-9.53,7.63S132.3,461.4,132.3,461.4Z"/><path class="cls-2" d="M84,461.49s-12.46-2.56-12.3.52S84,461.49,84,461.49Z"/><path class="cls-2" d="M97.54,458.27s-11-6.36-11.82-3.39S97.54,458.27,97.54,458.27Z"/><path class="cls-2" d="M116.1,448.32s-12.72.4-11.82,3.35S116.1,448.32,116.1,448.32Z"/><path class="cls-2" d="M130.4,433s-12.73-.2-12,2.79S130.4,433,130.4,433Z"/><path class="cls-2" d="M145.76,401.14s-10.64,6.85-8.3,8.91S145.76,401.14,145.76,401.14Z"/><path class="cls-2" d="M112.17,454.77s-11.18,6-9,8.2S112.17,454.77,112.17,454.77Z"/><path class="cls-2" d="M125.15,444.32s-8.69,9.11-5.91,10.58S125.15,444.32,125.15,444.32Z"/><path class="cls-2" d="M139.6,424.23s-6.15,10.92-3.1,11.67S139.6,424.23,139.6,424.23Z"/><path class="cls-2" d="M140.42,454.3s-8.6,9.19-5.81,10.63S140.42,454.3,140.42,454.3Z"/><path class="cls-2" d="M145.72,438.7s-9.78,8-7.21,9.77S145.72,438.7,145.72,438.7Z"/><path class="cls-2" d="M152.4,419.9s-2,12.32,1.12,12S152.4,419.9,152.4,419.9Z"/><path class="cls-2" d="M152.46,400.2s1.3,12.4,4.25,11.32S152.46,400.2,152.46,400.2Z"/><path class="cls-2" d="M147,372.27s-5.17,11.4-2.06,11.89S147,372.27,147,372.27Z"/><path class="cls-2" d="M156.14,369.81s-.75,12.46,2.34,11.84S156.14,369.81,156.14,369.81Z"/><path class="cls-2" d="M159.35,328.57s-.65,10.85,2,10.32S159.35,328.57,159.35,328.57Z"/><path class="cls-2" d="M156.67,306.59s2.16,10.66,4.63,9.48S156.67,306.59,156.67,306.59Z"/><path class="cls-2" d="M154.27,321.56s-4.42,10-1.71,10.38S154.27,321.56,154.27,321.56Z"/><path class="cls-2" d="M141.46,342.1s-5.08,11.44-2,11.91S141.46,342.1,141.46,342.1Z"/><path class="cls-2" d="M138.79,307.93s-5.08,11.44-2,11.91S138.79,307.93,138.79,307.93Z"/><path class="cls-2" d="M137.33,285.27s-6.23,10.88-3.18,11.65S137.33,285.27,137.33,285.27Z"/><path class="cls-2" d="M135.63,265.68s-6.23,10.88-3.18,11.65S135.63,265.68,135.63,265.68Z"/><path class="cls-2" d="M150.13,282.23s-5.43,9.48-2.77,10.15S150.13,282.23,150.13,282.23Z"/><path class="cls-2" d="M149.45,262.41s-5.43,9.48-2.77,10.15S149.45,262.41,149.45,262.41Z"/><path class="cls-2" d="M137,239.17s-9.09,8.73-6.39,10.31S137,239.17,137,239.17Z"/><path class="cls-2" d="M139.2,218.3s-8.26,9.5-5.42,10.83S139.2,218.3,139.2,218.3Z"/><path class="cls-2" d="M145.37,193.24s-10.25,7.41-7.79,9.34S145.37,193.24,145.37,193.24Z"/><path class="cls-2" d="M153.5,176.88a6.22,6.22,0,0,1-.85-.9c-3.3,1.69-8.08,4.5-6.76,6.11s5.24-2.34,7.65-5.1Z"/><path class="cls-2" d="M155.2,198.24s-1.38,10.79,1.34,10.43S155.2,198.24,155.2,198.24Z"/><path class="cls-2" d="M159.59,188.21a18.16,18.16,0,0,0-.73-2.88,6.25,6.25,0,0,1-1-.51c-.25,3.11-.42,8.61,1.54,8.35,1-.13,1.08-1.52.8-3.25A5.16,5.16,0,0,1,159.59,188.21Z"/><path class="cls-2" d="M150.06,214.36s-6.46,8.84-3.89,9.8S150.06,214.36,150.06,214.36Z"/><path class="cls-2" d="M144.52,315.82s2,12.33,4.84,11.09S144.52,315.82,144.52,315.82Z"/><path class="cls-2" d="M141.73,293.82s2,12.32,4.84,11.09S141.73,293.82,141.73,293.82Z"/><path class="cls-2" d="M155.09,289.28s1.7,10.74,4.22,9.67S155.09,289.28,155.09,289.28Z"/><path class="cls-2" d="M152.87,269.13s1.59,10.76,4.12,9.71S152.87,269.13,152.87,269.13Z"/><path class="cls-2" d="M152.09,242.43s1.59,10.76,4.11,9.71S152.09,242.43,152.09,242.43Z"/><path class="cls-2" d="M153,221.45s1.59,10.76,4.12,9.71S153,221.45,153,221.45Z"/><path class="cls-2" d="M140.67,273s2,12.33,4.84,11.09S140.67,273,140.67,273Z"/><path class="cls-2" d="M140,248.86s2,12.33,4.85,11.09S140,248.86,140,248.86Z"/><path class="cls-2" d="M149.11,232.19s-5.72,9.32-3.08,10.07S149.11,232.19,149.11,232.19Z"/><path class="cls-2" d="M147.77,351.39s2,12.32,4.84,11.09S147.77,351.39,147.77,351.39Z"/><path class="cls-2" d="M180.19,183c.26-1.71.53-3.36.82-5h-2.35c-.19,1.13-.38,2.28-.56,3.45a52.57,52.57,0,0,0-6.23-3.66v3.92a48.65,48.65,0,0,1,5.65,3.65c-5.73,40.6-5.87,101.8.48,150.29-3.59,35.21-3.65,77,5,98.81l.78,1.34c-8-20-7.93-58.19-4.66-92.05A261,261,0,0,0,186.65,379l.11.38a285.94,285.94,0,0,1-7.31-38.88c2.15-20.83,5.49-39.73,8.87-51.35C196.28,261.76,212.4,207.86,180.19,183Zm5.9,105.53c-3,10.18-5.73,25.71-7.67,43.14C173.34,284.11,174.15,226,179.59,187,208.44,211.53,193.72,262.21,186.08,288.52Z"/><path class="cls-2" d="M186.76,379.4l1,3.55C187.43,381.8,187.09,380.6,186.76,379.4Z"/><path class="cls-2" d="M181.63,430.43s8.84,9.16,6.09,10.7S181.63,430.43,181.63,430.43Z"/><path class="cls-2" d="M179.75,413.46s8.84,9.16,6.09,10.7S179.75,413.46,179.75,413.46Z"/><path class="cls-2" d="M175.25,398.21s1.11,12.68-2,12.15S175.25,398.21,175.25,398.21Z"/><path class="cls-2" d="M177.74,385.35s7.79,10.07,4.89,11.3S177.74,385.35,177.74,385.35Z"/><path class="cls-2" d="M175.59,362.07s-1.45,12.65-4.39,11.5S175.59,362.07,175.59,362.07Z"/><path class="cls-2" d="M185.08,375s6.75,10.8,3.74,11.73S185.08,375,185.08,375Z"/><path class="cls-2" d="M183.53,359.27s8,9.87,5.18,11.17S183.53,359.27,183.53,359.27Z"/><path class="cls-2" d="M180.4,342.55s8.15,9.79,5.29,11.12S180.4,342.55,180.4,342.55Z"/><path class="cls-2" d="M176.93,338.15s-1.77,12.61-4.67,11.39S176.93,338.15,176.93,338.15Z"/><path class="cls-2" d="M172.56,266.11s-.25,12.73-3.28,11.87S172.56,266.11,172.56,266.11Z"/><path class="cls-2" d="M176,281.34s6.23,11.11,3.18,11.9S176,281.34,176,281.34Z"/><path class="cls-2" d="M176,252.63s6.23,11.11,3.18,11.9S176,252.63,176,252.63Z"/><path class="cls-2" d="M172.26,238.9s.1,12.73-3,12S172.26,238.9,172.26,238.9Z"/><path class="cls-2" d="M176.36,225.26s5.79,11.34,2.71,12S176.36,225.26,176.36,225.26Z"/><path class="cls-2" d="M171.86,211v5.1a51.11,51.11,0,0,0,2.31-8.12S173.09,209.28,171.86,211Z"/><path class="cls-2" d="M178.58,197.13s5.9,11.29,2.83,12S178.58,197.13,178.58,197.13Z"/><path class="cls-2" d="M181.45,181.64s12.67,1.26,11.57,4.21S181.45,181.64,181.45,181.64Z"/><path class="cls-2" d="M181.77,190s5.9,11.29,2.83,12S181.77,190,181.77,190Z"/><path class="cls-2" d="M175,318s.84,12.71-2.25,12.11S175,318,175,318Z"/><path class="cls-2" d="M173,291.93s-1.77,12.61-4.67,11.39S173,291.93,173,291.93Z"/><path class="cls-2" d="M183.54,294.79s-2.26,12.54-5.11,11.2S183.54,294.79,183.54,294.79Z"/><path class="cls-2" d="M190.85,285.45s2.75,12.43-.39,12.31S190.85,285.45,190.85,285.45Z"/><path class="cls-2" d="M184.5,309.43s5.8,11.34,2.72,12S184.5,309.43,184.5,309.43Z"/><path class="cls-2" d="M182.22,324.59s4.06,12.07.92,12.28S182.22,324.59,182.22,324.59Z"/><path class="cls-2" d="M195.93,264.09s3.79,12.16.65,12.3S195.93,264.09,195.93,264.09Z"/><path class="cls-2" d="M195,247.4s-3.92,12.12-6.57,10.42S195,247.4,195,247.4Z"/><path class="cls-2" d="M193.81,212.27s3.14,12.34,0,12.31S193.81,212.27,193.81,212.27Z"/><path class="cls-2" d="M200.22,233.52s6.66,10.85,3.65,11.76S200.22,233.52,200.22,233.52Z"/><path class="cls-2" d="M193.64,197.75s10.69,6.91,8.37,9S193.64,197.75,193.64,197.75Z"/><path class="cls-2" d="M190,271.58s-4.72,11.83-7.25,9.95S190,271.58,190,271.58Z"/><path class="cls-3" d="M218.89,378.1s-5.62,8.75-2.94,9.57S218.89,378.1,218.89,378.1Z"/><path class="cls-3" d="M218.89,346.14s-5.62,8.75-2.94,9.57S218.89,346.14,218.89,346.14Z"/><path class="cls-3" d="M219.21,318.49s-5.62,8.75-2.94,9.57S219.21,318.49,219.21,318.49Z"/><path class="cls-3" d="M222.34,332.62s1.25,10.33,3.83,9.25S222.34,332.62,222.34,332.62Z"/><path class="cls-3" d="M242.26,397.87s4.75,11.81,7.27,9.93S242.26,397.87,242.26,397.87Z"/><path class="cls-3" d="M257.34,420.84s4.31,12,6.9,10.2S257.34,420.84,257.34,420.84Z"/><path class="cls-3" d="M138.7,396.81s-6.46,11-3.43,11.83S138.7,396.81,138.7,396.81Z"/><path class="cls-3" d="M136.58,379.86s-6.46,11-3.43,11.82S136.58,379.86,136.58,379.86Z"/><path class="cls-3" d="M137.4,364s1.88,12.59,4.77,11.35S137.4,364,137.4,364Z"/><path class="cls-3" d="M132,352.06s-5.22,11.61-2.12,12.13S132,352.06,132,352.06Z"/><path class="cls-3" d="M128.64,328.92s4.36,12,7,10.17S128.64,328.92,128.64,328.92Z"/><path class="cls-3" d="M122.43,343.68s-4,12.07-.91,12.28S122.43,343.68,122.43,343.68Z"/><path class="cls-3" d="M274.73,375.55s-.65,12.71,2.43,12.07S274.73,375.55,274.73,375.55Z"/><path class="cls-3" d="M280.69,380.63s6.68,10.84,8.85,8.56S280.69,380.63,280.69,380.63Z"/><path class="cls-3" d="M223.08,287.46s-6,8.58-3.85,9.43S223.08,287.46,223.08,287.46Z"/><path class="cls-3" d="M229.15,264.91s-1.21,10.56,1.8,10S229.15,264.91,229.15,264.91Z"/><path class="cls-3" d="M224.34,258.45s-1.72,10.49-4.5,9.14S224.34,258.45,224.34,258.45Z"/><path class="cls-3" d="M231.14,247.7s6.17,8.66,3.25,9.66S231.14,247.7,231.14,247.7Z"/><path class="cls-3" d="M227.4,287.46s-2.33,10.22,0,10.19S227.4,287.46,227.4,287.46Z"/><path class="cls-3" d="M228.37,234.24s-7,7.78-5,8.88S228.37,234.24,228.37,234.24Z"/><path class="cls-3" d="M233.12,222.44s-.11,10.48,2.16,10S233.12,222.44,233.12,222.44Z"/><path class="cls-3" d="M235.36,196.54s-.44,10.47,1.84,10S235.36,196.54,235.36,196.54Z"/><path class="cls-3" d="M231.79,182.86s-6.15,8.49-4,9.37S231.79,182.86,231.79,182.86Z"/><path class="cls-3" d="M235.83,167.21s.77,10.46,3,9.74S235.83,167.21,235.83,167.21Z"/><path class="cls-3" d="M230.16,144.76s7.78,7,8.88,5S230.16,144.76,230.16,144.76Z"/><path class="cls-3" d="M219.6,135.83s9.37,4.71,9.89,2.44S219.6,135.83,219.6,135.83Z"/><path class="cls-3" d="M230.73,160.71s-6.27,8.4-4.14,9.31S230.73,160.71,230.73,160.71Z"/><path class="cls-3" d="M222.33,144.43s6,8.54,4.13,9.31S222.33,144.43,222.33,144.43Z"/><path class="cls-3" d="M202.65,141.58s10.42.61,9.86,2.55S202.65,141.58,202.65,141.58Z"/><path class="cls-3" d="M182.49,148.42s5.51-8.86,6.95-7.45S182.49,148.42,182.49,148.42Z"/><path class="cls-3" d="M229.56,211.77s-6,8.58-3.85,9.43S229.56,211.77,229.56,211.77Z"/><path class="cls-3" d="M225.14,307.13s-1.66,10.35.66,10.16S225.14,307.13,225.14,307.13Z"/><path class="cls-3" d="M283.87,390.9s-.32,12.73,2.74,12S283.87,390.9,283.87,390.9Z"/><path class="cls-3" d="M290.57,397.64s9.16,8.85,10.7,6.1S290.57,397.64,290.57,397.64Z"/><path class="cls-3" d="M296,405.63s1.91,12.59,4.8,11.34S296,405.63,296,405.63Z"/><path class="cls-3" d="M254.31,391.82s-.67,12.72,2.41,12.07S254.31,391.82,254.31,391.82Z"/><path class="cls-3" d="M267.2,355.76s-3.64,12.2-.49,12.3S267.2,355.76,267.2,355.76Z"/><path class="cls-3" d="M266.53,334.6s3,12.37,5.77,10.88S266.53,334.6,266.53,334.6Z"/><path class="cls-3" d="M270.38,307.78s-5.27,11.59-2.16,12.12S270.38,307.78,270.38,307.78Z"/><path class="cls-3" d="M282,279.76s-4,12.1-.82,12.28S282,279.76,282,279.76Z"/><path class="cls-3" d="M276.22,285.9s-10,7.94-7.43,9.82S276.22,285.9,276.22,285.9Z"/><path class="cls-3" d="M285.81,260.44s-10,7.94-7.43,9.82S285.81,260.44,285.81,260.44Z"/><path class="cls-3" d="M293.16,248.22s-4.88,11.76-1.76,12.19S293.16,248.22,293.16,248.22Z"/><path class="cls-3" d="M296.39,230.55s-9.77,8.16-7.2,10S296.39,230.55,296.39,230.55Z"/><path class="cls-3" d="M303.6,208.05s-9.77,8.17-7.2,10S303.6,208.05,303.6,208.05Z"/><path class="cls-3" d="M312.36,173.13s-9.77,8.16-7.2,10S312.36,173.13,312.36,173.13Z"/><path class="cls-3" d="M314.74,150.19s-7,10.63-4,11.64S314.74,150.19,314.74,150.19Z"/><path class="cls-3" d="M318.51,134.55s1.72,12.61,4.63,11.41S318.51,134.55,318.51,134.55Z"/><path class="cls-3" d="M302.08,104s8.74,9.26,10.4,6.59S302.08,104,302.08,104Z"/><path class="cls-3" d="M309.62,119.27s-2.72,12.44.42,12.3S309.62,119.27,309.62,119.27Z"/><path class="cls-3" d="M316.62,166.95s-2.5,12.49.65,12.3S316.62,166.95,316.62,166.95Z"/><path class="cls-3" d="M302.89,222.44s-5.22,11.61-2.11,12.13S302.89,222.44,302.89,222.44Z"/><path class="cls-3" d="M310,197.34s-3.22,12.32-.08,12.31S310,197.34,310,197.34Z"/><path class="cls-3" d="M268.58,274.06s-7.92,10-5,11.24S268.58,274.06,268.58,274.06Z"/><path class="cls-3" d="M262.13,329.86s-5.55,11.46-2.46,12.06S262.13,329.86,262.13,329.86Z"/><path class="cls-3" d="M273.53,365.92s4.75,11.81,7.27,9.93S273.53,365.92,273.53,365.92Z"/><path class="cls-3" d="M107.95,419.58s-8.23,9.72-5.38,11.07S107.95,419.58,107.95,419.58Z"/><path class="cls-3" d="M64.16,439.92s-12.41,2.86-10.94,5.64S64.16,439.92,64.16,439.92Z"/><path class="cls-3" d="M75.05,431.27S62.38,430,62.87,433.09,75.05,431.27,75.05,431.27Z"/><path class="cls-3" d="M87.64,414.26s-11.38,5.71-9.3,8.07S87.64,414.26,87.64,414.26Z"/><path class="cls-3" d="M94.06,394.08s-11.64,5.16-9.67,7.62S94.06,394.08,94.06,394.08Z"/><path class="cls-3" d="M94.33,358.09s-6.73,10.81-3.72,11.74S94.33,358.09,94.33,358.09Z"/><path class="cls-3" d="M86.83,421.88s-7.6,10.21-4.68,11.39S86.83,421.88,86.83,421.88Z"/><path class="cls-3" d="M94.13,406.74s-4,12.1-.83,12.28S94.13,406.74,94.13,406.74Z"/><path class="cls-3" d="M98.64,382.07s-.91,12.7,2.19,12.12S98.64,382.07,98.64,382.07Z"/><path class="cls-3" d="M112.27,409.59s-3.86,12.13-.72,12.29S112.27,409.59,112.27,409.59Z"/><path class="cls-3" d="M110.39,392.91S104.94,404.42,108,405,110.39,392.91,110.39,392.91Z"/><path class="cls-3" d="M108.4,372.69s3.45,12.26,6.17,10.66S108.4,372.69,108.4,372.69Z"/><path class="cls-3" d="M100,354.4s6.5,11,8.71,8.71S100,354.4,100,354.4Z"/><path class="cls-3" d="M83.12,330.8s.2,12.73,3.23,11.88S83.12,330.8,83.12,330.8Z"/><path class="cls-3" d="M90.33,324.71s4.66,11.85,7.2,10S90.33,324.71,90.33,324.71Z"/><path class="cls-3" d="M75.57,285.14s4.06,10.33,6.28,8.71S75.57,285.14,75.57,285.14Z"/><path class="cls-3" d="M120.27,328s-5.53,11.47-2.43,12.07S120.27,328,120.27,328Z"/><path class="cls-3" d="M119.42,311.06s-5.64,11.42-2.55,12S119.42,311.06,119.42,311.06Z"/><path class="cls-3" d="M121.76,306s4.66,11.85,7.2,10S121.76,306,121.76,306Z"/><path class="cls-3" d="M109.23,234.89s3.21,12.32,6,10.77S109.23,234.89,109.23,234.89Z"/><path class="cls-3" d="M109.45,250.5s-3.47,12.25-.32,12.31S109.45,250.5,109.45,250.5Z"/><path class="cls-3" d="M102.75,222.58s-3.47,12.25-.32,12.31S102.75,222.58,102.75,222.58Z"/><path class="cls-3" d="M103.17,208.37s2.87,12.41,5.66,10.94S103.17,208.37,103.17,208.37Z"/><path class="cls-3" d="M96,196.06s-3,12.38.16,12.31S96,196.06,96,196.06Z"/><path class="cls-3" d="M94.11,178.74s5.27,11.6,7.71,9.61S94.11,178.74,94.11,178.74Z"/><path class="cls-3" d="M87.3,169.22s-3.11,12.35,0,12.31S87.3,169.22,87.3,169.22Z"/><path class="cls-3" d="M70.88,133.08s-3.11,12.35,0,12.32S70.88,133.08,70.88,133.08Z"/><path class="cls-3" d="M62.73,114.28s-3.11,12.35,0,12.32S62.73,114.28,62.73,114.28Z"/><path class="cls-3" d="M58.77,90.36s-6.15,11.15-3.09,11.92S58.77,90.36,58.77,90.36Z"/><path class="cls-3" d="M67.71,56.16s-4.32,12-1.18,12.26S67.71,56.16,67.71,56.16Z"/><path class="cls-3" d="M62.76,98.18s1.74,12.62,4.65,11.4S62.76,98.18,62.76,98.18Z"/><path class="cls-3" d="M69.51,120.43s5,11.7,7.51,9.76S69.51,120.43,69.51,120.43Z"/><path class="cls-3" d="M92.64,33.36s-10.49,7.23-8.1,9.28S92.64,33.36,92.64,33.36Z"/><path class="cls-3" d="M113.83,26.51s-11.65,5.14-9.69,7.61S113.83,26.51,113.83,26.51Z"/><path class="cls-3" d="M122.19,20.75s-11.65-5.15-12.14-2S122.19,20.75,122.19,20.75Z"/><path class="cls-3" d="M149.9,24.82s-6.66-10.85-8.84-8.58S149.9,24.82,149.9,24.82Z"/><path class="cls-3" d="M158.62,39.23s-11.85-4.67-12.22-1.54S158.62,39.23,158.62,39.23Z"/><path class="cls-3" d="M170.06,59.45s-9.39-8.54-10.77-6S170.06,59.45,170.06,59.45Z"/><path class="cls-3" d="M177.09,79.05s-6.35-11-8.44-9S177.09,79.05,177.09,79.05Z"/><path class="cls-3" d="M171.68,45.67s0-12.74-3.06-11.93S171.68,45.67,171.68,45.67Z"/><path class="cls-3" d="M131.52,25.75S121,33,123.42,35,131.52,25.75,131.52,25.75Z"/><path class="cls-3" d="M80.89,154.82s-12,4.18-10.27,6.79S80.89,154.82,80.89,154.82Z"/><path class="cls-3" d="M82.54,163.06s-3.11,12.35,0,12.32S82.54,163.06,82.54,163.06Z"/><path class="cls-3" d="M101.17,145.94s-9.45,8.54-6.81,10.26S101.17,145.94,101.17,145.94Z"/><path class="cls-3" d="M115.47,135.67s-11.45-5.57-12.06-2.48S115.47,135.67,115.47,135.67Z"/><path class="cls-3" d="M101,140s-12.53-2.29-12.29.85S101,140,101,140Z"/><path class="cls-3" d="M138.42,136.87s-7-10.63-9.11-8.28S138.42,136.87,138.42,136.87Z"/><path class="cls-3" d="M126.33,138.6s-12.51,2.37-11.16,5.22S126.33,138.6,126.33,138.6Z"/><path class="cls-3" d="M118.95,286s2.14,12.55,5,11.25S118.95,286,118.95,286Z"/><path class="cls-3" d="M114.85,260.11s4.66,11.85,7.2,10S114.85,260.11,114.85,260.11Z"/><path class="cls-3" d="M105.23,265.35s5.12,11.66,7.58,9.7S105.23,265.35,105.23,265.35Z"/><path class="cls-3" d="M95.95,258s.22,12.73,3.25,11.88S95.95,258,95.95,258Z"/><path class="cls-3" d="M107.72,279.81s-3,12.38.15,12.31S107.72,279.81,107.72,279.81Z"/><path class="cls-3" d="M113.46,294s-1.13,12.68,2,12.16S113.46,294,113.46,294Z"/><path class="cls-3" d="M86,238.38s-.85,12.7,2.24,12.11S86,238.38,86,238.38Z"/><path class="cls-3" d="M83,221.94s6.63,10.87,8.81,8.6S83,221.94,83,221.94Z"/><path class="cls-3" d="M76,187.49s-.18,12.73,2.87,12S76,187.49,76,187.49Z"/><path class="cls-3" d="M74.73,209.65s-4,12.1-.81,12.29S74.73,209.65,74.73,209.65Z"/><path class="cls-3" d="M72.79,173.33s-8.79,9.21-6,10.73S72.79,173.33,72.79,173.33Z"/><path class="cls-3" d="M93.56,244.27s7.35,10.4,9.37,8S93.56,244.27,93.56,244.27Z"/><path class="cls-3" d="M63.72,265.9s6.53,9,8.27,6.84S63.72,265.9,63.72,265.9Z"/><path class="cls-3" d="M68,280.78s.26,11.1,2.89,10.34S68,280.78,68,280.78Z"/><path class="cls-3" d="M65.12,305.19s.29,12.73,3.32,11.86S65.12,305.19,65.12,305.19Z"/><path class="cls-3" d="M48.07,274.65s.29,12.73,3.32,11.86S48.07,274.65,48.07,274.65Z"/><path class="cls-3" d="M37,254.27S36,267,39.13,266.4,37,254.27,37,254.27Z"/><path class="cls-3" d="M27.08,236.83s-1,12.7,2.11,12.13S27.08,236.83,27.08,236.83Z"/><path class="cls-3" d="M47.34,246.07s-.86,11.06,1.84,10.57S47.34,246.07,47.34,246.07Z"/><path class="cls-3" d="M38.22,228s-.86,11.06,1.84,10.57S38.22,228,38.22,228Z"/><path class="cls-3" d="M16.95,211.7s-4.51,11.91-1.38,12.24S16.95,211.7,16.95,211.7Z"/><path class="cls-3" d="M10,191.43S6.6,203.7,9.75,203.74,10,191.43,10,191.43Z"/><path class="cls-3" d="M4.88,165.62s-6.12,11.16-3.07,11.92S4.88,165.62,4.88,165.62Z"/><path class="cls-3" d="M6.12,144.08s-8.36,9.6-5.54,11S6.12,144.08,6.12,144.08Z"/><path class="cls-3" d="M15.95,166.13s3.36,10.57,5.68,9.1S15.95,166.13,15.95,166.13Z"/><path class="cls-3" d="M11.9,150.56s3.36,10.58,5.68,9.1S11.9,150.56,11.9,150.56Z"/><path class="cls-3" d="M22.35,119.37S17,130.9,20.07,131.46,22.35,119.37,22.35,119.37Z"/><path class="cls-3" d="M29.69,101.82s-12,4.32-10.19,6.91S29.69,101.82,29.69,101.82Z"/><path class="cls-3" d="M40,99.54s-6.61,10.88-3.59,11.78S40,99.54,40,99.54Z"/><path class="cls-3" d="M50,83.75s-12.71.8-11.71,3.79S50,83.75,50,83.75Z"/><path class="cls-3" d="M88.49,68.28s-10.64-7-11.64-4S88.49,68.28,88.49,68.28Z"/><path class="cls-3" d="M80.8,76.49S68.66,80.33,70.35,83,80.8,76.49,80.8,76.49Z"/><path class="cls-3" d="M106.48,74.44S94.34,78.28,96,80.94,106.48,74.44,106.48,74.44Z"/><path class="cls-3" d="M135,93.18s-10.84-6.69-11.75-3.67S135,93.18,135,93.18Z"/><path class="cls-3" d="M5.92,118.6s-7.21,10.5-4.25,11.56S5.92,118.6,5.92,118.6Z"/><path class="cls-3" d="M9.86,99s-10.1,7.76-7.61,9.68S9.86,99,9.86,99Z"/><path class="cls-3" d="M17.22,82S5.69,87.4,7.71,89.82,17.22,82,17.22,82Z"/><path class="cls-3" d="M35,65.22s-12.55-2.17-12.28,1S35,65.22,35,65.22Z"/><path class="cls-3" d="M60.52,52.82S48.76,48,48.33,51.07,60.52,52.82,60.52,52.82Z"/><path class="cls-3" d="M79,37.6S66.25,36.86,66.87,40,79,37.6,79,37.6Z"/><path class="cls-3" d="M14.93,97.82S10.19,109.64,13.32,110,14.93,97.82,14.93,97.82Z"/><path class="cls-3" d="M26.52,79s-4.74,11.82-1.61,12.21S26.52,79,26.52,79Z"/><path class="cls-3" d="M50,62.29s-9.8,8.13-7.24,10S50,62.29,50,62.29Z"/><path class="cls-3" d="M18.19,183.22s-2.07,10.9.67,10.71S18.19,183.22,18.19,183.22Z"/><path class="cls-3" d="M56.64,279.56s7.06,10.6,9.15,8.24S56.64,279.56,56.64,279.56Z"/><path class="cls-3" d="M44.68,260.34s7.06,10.6,9.15,8.24S44.68,260.34,44.68,260.34Z"/><path class="cls-3" d="M54.86,250.53s6.15,9.24,8,7.18S54.86,250.53,54.86,250.53Z"/><path class="cls-3" d="M44.21,232.79s6.05,9.3,7.9,7.27S44.21,232.79,44.21,232.79Z"/><path class="cls-3" d="M32.06,208.37s6.05,9.3,7.9,7.27S32.06,208.37,32.06,208.37Z"/><path class="cls-3" d="M23.85,188.57s6.05,9.3,7.9,7.27S23.85,188.57,23.85,188.57Z"/><path class="cls-3" d="M34.8,241.51s7.06,10.6,9.15,8.24S34.8,241.51,34.8,241.51Z"/><path class="cls-3" d="M23.85,219.41S30.91,230,33,227.65,23.85,219.41,23.85,219.41Z"/><path class="cls-3" d="M25,200.14s-1.2,11,1.52,10.62S25,200.14,25,200.14Z"/><path class="cls-3" d="M74.84,311.14s7.06,10.6,9.15,8.24S74.84,311.14,74.84,311.14Z"/><path class="cls-3" d="M253.7,409.11s-5.33,11.57-2.23,12.11S253.7,409.11,253.7,409.11Z"/><path class="cls-3" d="M240.11,379.86s-7.31,10.43-4.36,11.52S240.11,379.86,240.11,379.86Z"/><path class="cls-3" d="M221.45,367.9s1.2,9.74,3.85,8.58S221.45,367.9,221.45,367.9Z"/><path class="cls-3" d="M252.53,367.9s-7.42,10.34-4.48,11.47S252.53,367.9,252.53,367.9Z"/><path class="cls-3" d="M253.27,342.81s-10.74,6.84-8.42,9S253.27,342.81,253.27,342.81Z"/><path class="cls-3" d="M256.64,319.92s-8.7,9.3-5.92,10.79S256.64,319.92,256.64,319.92Z"/><path class="cls-3" d="M258.73,295s-8.69,9.3-5.92,10.79S258.73,295,258.73,295Z"/><path class="cls-3" d="M260.77,269.49s-8.69,9.3-5.92,10.8S260.77,269.49,260.77,269.49Z"/><path class="cls-3" d="M263.14,242.76s-8.7,9.3-5.92,10.8S263.14,242.76,263.14,242.76Z"/><path class="cls-3" d="M264.93,219.26s-7.27,10.46-4.31,11.53S264.93,219.26,264.93,219.26Z"/><path class="cls-3" d="M266.32,254.32s-1.68,12.62,1.44,12.23S266.32,254.32,266.32,254.32Z"/><path class="cls-3" d="M272.75,269.49s-1.68,12.62,1.44,12.23S272.75,269.49,272.75,269.49Z"/><path class="cls-3" d="M279.35,241.58s-1.68,12.62,1.44,12.23S279.35,241.58,279.35,241.58Z"/><path class="cls-3" d="M285.17,213.14s-1.68,12.62,1.44,12.23S285.17,213.14,285.17,213.14Z"/><path class="cls-3" d="M292.41,172.1s-1.68,12.62,1.44,12.23S292.41,172.1,292.41,172.1Z"/><path class="cls-3" d="M280.39,220.32s-8.5,9.49-5.69,10.92S280.39,220.32,280.39,220.32Z"/><path class="cls-3" d="M286,187.57s-8.5,9.49-5.69,10.92S286,187.57,286,187.57Z"/><path class="cls-3" d="M268.33,227.43s-1.68,12.62,1.44,12.23S268.33,227.43,268.33,227.43Z"/><path class="cls-3" d="M241.54,279.18s-3.13,12.34,0,12.31S241.54,279.18,241.54,279.18Z"/><path class="cls-3" d="M247.43,257.43s-3.13,12.34,0,12.31S247.43,257.43,247.43,257.43Z"/><path class="cls-3" d="M252.58,234.19s-3.13,12.34,0,12.31S252.58,234.19,252.58,234.19Z"/><path class="cls-3" d="M260.8,203.49s-3.13,12.34,0,12.31S260.8,203.49,260.8,203.49Z"/><path class="cls-3" d="M241.22,261.12s-8.76,9.24-6,10.75S241.22,261.12,241.22,261.12Z"/><path class="cls-3" d="M247.45,240.14s-8.76,9.24-6,10.75S247.45,240.14,247.45,240.14Z"/><path class="cls-3" d="M252.11,215.8s-8.76,9.24-6,10.75S252.11,215.8,252.11,215.8Z"/><path class="cls-3" d="M262.69,182.05s-8.76,9.24-6,10.75S262.69,182.05,262.69,182.05Z"/><path class="cls-3" d="M271.15,142.9s-8.76,9.24-6,10.75S271.15,142.9,271.15,142.9Z"/><path class="cls-3" d="M271,159.26s-2.05,12.57,1.08,12.26S271,159.26,271,159.26Z"/><path class="cls-3" d="M276.82,132.79s-1.31,12.67,1.8,12.18S276.82,132.79,276.82,132.79Z"/><path class="cls-3" d="M281.82,108.32s.22,12.73,3.25,11.88S281.82,108.32,281.82,108.32Z"/><path class="cls-3" d="M276.8,96.38s-8.76,9.24-6,10.75S276.8,96.38,276.8,96.38Z"/><path class="cls-3" d="M256.13,86.78s9.67,8.29,11,5.45S256.13,86.78,256.13,86.78Z"/><path class="cls-3" d="M233.09,87.49s11.64,5.17,12.14,2.06S233.09,87.49,233.09,87.49Z"/><path class="cls-3" d="M243.89,81.62s12.31-3.24,10.76-6S243.89,81.62,243.89,81.62Z"/><path class="cls-3" d="M217.6,89.14s11.42-5.63,9.35-8S217.6,89.14,217.6,89.14Z"/><path class="cls-3" d="M200.73,100.83s8.56-9.43,5.77-10.88S200.73,100.83,200.73,100.83Z"/><path class="cls-3" d="M214.77,95.65s12.08,4,12.28.9S214.77,95.65,214.77,95.65Z"/><path class="cls-3" d="M195.5,112.2s12.71-.8,11.71-3.79S195.5,112.2,195.5,112.2Z"/><path class="cls-3" d="M184.82,126.45s12.71-.8,11.71-3.79S184.82,126.45,184.82,126.45Z"/><path class="cls-3" d="M255.49,18.34s2.6,12.46,5.41,11.06S255.49,18.34,255.49,18.34Z"/><path class="cls-3" d="M234.67,9.34s8.83,9.17,10.47,6.48S234.67,9.34,234.67,9.34Z"/><path class="cls-3" d="M214.16,21.14s12.71-.82,11.71-3.81S214.16,21.14,214.16,21.14Z"/><path class="cls-3" d="M199.6,39.08s11.91-4.5,10.08-7.06S199.6,39.08,199.6,39.08Z"/><path class="cls-3" d="M191.94,56.74s11.91-4.5,10.08-7.06S191.94,56.74,191.94,56.74Z"/><path class="cls-3" d="M268.92,26.56s6.82,10.75,9,8.44S268.92,26.56,268.92,26.56Z"/><path class="cls-3" d="M247.67,6.92s11.93,4.44,12.24,1.31S247.67,6.92,247.67,6.92Z"/><path class="cls-3" d="M219.06,7.85s11.73-5,9.8-7.45S219.06,7.85,219.06,7.85Z"/><path class="cls-3" d="M199.69,26.8S207,16.36,204,15.27,199.69,26.8,199.69,26.8Z"/><path class="cls-3" d="M189.58,44.23s4.81-11.79,1.68-12.2S189.58,44.23,189.58,44.23Z"/><path class="cls-3" d="M270.6,41.91s-3.48,12.25-.33,12.31S270.6,41.91,270.6,41.91Z"/><path class="cls-3" d="M281.82,61s1.62,12.63,4.54,11.44S281.82,61,281.82,61Z"/><path class="cls-3" d="M260.19,68s6.28,11.07,8.54,8.87S260.19,68,260.19,68Z"/><path class="cls-3" d="M252.3,57.77s12.24,3.52,12.31.37S252.3,57.77,252.3,57.77Z"/><path class="cls-3" d="M218.42,58s11.87-4.59,10-7.15S218.42,58,218.42,58Z"/><path class="cls-3" d="M196.31,74.06s6.31-11.06,3.26-11.87S196.31,74.06,196.31,74.06Z"/><path class="cls-3" d="M233.91,61.62s10.1,7.76,11.32,4.85S233.91,61.62,233.91,61.62Z"/><path class="cls-3" d="M210.06,71.66s12.57,2.05,12.26-1.08S210.06,71.66,210.06,71.66Z"/><path class="cls-3" d="M194.34,92.82s11.29-5.89,9.17-8.22S194.34,92.82,194.34,92.82Z"/><path class="cls-3" d="M273.53,120s-8.76,9.24-6,10.75S273.53,120,273.53,120Z"/><path class="cls-3" d="M236.43,309s-.92,12.7,2.18,12.12S236.43,309,236.43,309Z"/><path class="cls-3" d="M234,331.29s-.47,12.72,2.61,12S234,331.29,234,331.29Z"/><path class="cls-3" d="M231.58,321.16s-7.62,10.2-4.7,11.38S231.58,321.16,231.58,321.16Z"/><path class="cls-3" d="M236.19,293.86s-8.32,9.64-5.49,11S236.19,293.86,236.19,293.86Z"/><path class="cls-3" d="M231.93,348.67S228.8,361,232,361,231.93,348.67,231.93,348.67Z"/><path class="cls-3" d="M257.95,351.68s-3,12.36.1,12.31S257.95,351.68,257.95,351.68Z"/><path class="cls-3" d="M235.32,356.85s4.78,11.8,7.3,9.91S235.32,356.85,235.32,356.85Z"/><path class="cls-3" d="M304.51,414.08s7,10.64,9.1,8.29S304.51,414.08,304.51,414.08Z"/><path class="cls-3" d="M223.58,391.55s8.12,9.61,6.15,10.66S223.58,391.55,223.58,391.55Z"/><path class="cls-4" d="M239.06,361.61a14.71,14.71,0,0,0,1.3,1.13A12.09,12.09,0,0,1,239.06,361.61Z"/><path class="cls-4" d="M264.2,321.34c.39-1,.78-1.93,1.17-2.91,35.75-90.27,70.33-175.09,42.77-206.29a101.49,101.49,0,0,0-20-17.68,64,64,0,0,0-6.79-13.73c-1.26-36.23-13.39-59.31-26.25-69.31-9.86-7.67-21.33-9.06-32.29-3.92-17.94,8.42-32.63,32.11-42,66.73-1.28-8.1-6.77-32.1-27.77-45.84-13.16-8.61-30.19-9.75-49.89-3.11C86.83,30.76,75,40,67.57,51.63q-17.87,2.91-35.89,17C11.82,84.24,4,108.43,8.16,140.79a54.82,54.82,0,0,0-2.36,12.84c-2.38,46.19,30,99,58.61,145.53,10.66,17.36,21,34.1,29.33,49.74,3.6,20.29,4,41.45-2.48,58.83-6.13,16.57-18,30.09-34.62,35.3C74,437.59,86,426.07,92.43,408.8c6.07-16.4,6.38-36.12,3.68-55.37,15.49,30.26,22.41,56.11,7.33,73.81,16.76-19.68,8.85-47.55-8.35-80.34-4.74-27-14.9-52.15-22.86-64.89L71,280Q17.85,195.19,10.21,142.12c6.21-21.32,25.44-44.3,48.43-57.62.16,22.05,9.95,43.1,15.24,52.87a190.79,190.79,0,0,1,8.55,18.47C56.91,187.54,85.14,236.2,99.28,261c6,10.51,13.64,28.11,20.59,47.87a285.5,285.5,0,0,1,2,39.51l0-.4a261.28,261.28,0,0,0-.91-36c11.07,32.17,20,69.25,16.92,90.6l.45-1.49c3.36-23.2-6.45-63.85-18.14-97.26C115,255.16,100.63,195.68,85.6,157.53a54.2,54.2,0,0,1,13.84-11.71c12.85-7.8,24.33-9.53,34.11-5.12,15.48,7,21,23.45,24.19,34.67.21,3.84.82,8,.93,12.12,4.22,163.13,6.66,276.28-7.71,309.4-2.42,2.75-7.16,6.73-15.8,9.83-8.38.93-37.79,4.44-44.55,8.51-4.19,2.52,53.25-5.68,82.09-2.26,25.59,3,32.8,17.79,47.83,9,3.34-1.94-29.88-12.6-5-11.39,15.33.74,27.91,3.12,29,1.82,3-3.41-13.21-7-25.74-7.65a42.19,42.19,0,0,0-9.36.43h0c-9.73-1.47-14.36-7.49-14.39-7.52-7.87-14.63-18.17-48.55-18.13-123.5,0-47.53-3.21-115.31-2.67-188.94,1.08-5.79,3.62-17.95,11.49-29.92A71.93,71.93,0,0,1,194,144.9c4.76-3,12.81-6.91,20.69-5.58,5.82,1,10.68,4.72,14.45,11.11,6.79,11.51,1.8,62.28-3,111.37C220.42,320,214.51,380.12,225,394.25,215,380.84,223,317.07,228.46,262c5.08-51.74,10.6-101.3,3.43-113.47-4.13-7-9.87-11.51-16.4-12.62a26.79,26.79,0,0,0-11,.45c9.26-5.64,20-7.77,32.44-5.86,16.62,2.56,24.43,20.46,27.3,46.3-2.93,12-6,24.12-9.05,36.09-17.29,67.94-33.63,132.18-16.12,148.7-16.12-16,2.06-84,18.38-148.12,2.49-9.8,5-19.71,7.45-29.56,2.51,33.89-2.13,79.09-6.46,121.28-1.28,12.45-2.52,24.52-3.55,35.94-2.84,7.22-5.67,14.48-8.45,21.71-4.35,11.31-10.12,31.62.16,40.56-9.55-8.31-2.21-32.37,1.12-41,2.23-5.8,4.52-11.49,6.81-17.15-3.37,38.94-3.92,69.59,5.59,80.06-9.45-10.39-7-45.74-2.81-86.93q2.64-6.47,5.25-12.94c3.39,60.33,44.6,91.29,45,91.61C307.15,416.74,265.77,383.33,264.2,321.34Zm17.2-232.66q.62,1.2,1.18,2.44l-1.2-.65C281.4,89.87,281.4,89.28,281.41,88.68Zm-2.33.62a65,65,0,0,0-48.81-3.86c-25,7.76-46.51,30-56.12,56.24.07-1.15.15-2.29.23-3.43,4.68-16.81,19.4-62,44.83-73.36,13.23-5.89,25.91-6.4,42.08,2.52a48,48,0,0,1,17.77,17.13Q279.1,86.87,279.07,89.29Zm-53.3-78.19c10.13-4.75,18.63-3,27.76,4.08,12,9.32,23.33,29.53,25.28,62.05A48.41,48.41,0,0,0,264,64.66c-16.84-9.3-32.44-10.87-46.37-4.67-22.22,9.89-34.87,36.87-40.79,53.48C184.24,58.82,202.33,22.1,225.77,11.11ZM67.87,55.76a55.45,55.45,0,0,1,29.62,3.49,79.9,79.9,0,0,1,25.42,16.94,52.86,52.86,0,0,0-26-7.26h-.72c-11.78,0-23.78,3.73-35,9.86A57.51,57.51,0,0,1,64.89,62,49.61,49.61,0,0,1,67.87,55.76ZM18.09,181c14.63,42.29,40,82.88,50.9,100.21l1.26,2c7.33,11.73,16.83,34.07,22.1,58.53-7.55-13.86-16.56-28.55-25.94-43.83C38,251.67,5.79,199.22,8.13,153.75a47.62,47.62,0,0,1,.92-7A215.55,215.55,0,0,0,18.09,181ZM9.55,136.61Q5.29,93.84,32.7,72.36,48.9,59.65,64.93,56.28c-.81,1.59-1.55,3.2-2.21,4.86a60.39,60.39,0,0,0-4,19C36.39,93.14,17.36,115.45,9.55,136.61ZM118.81,300c-5.95-16.5-12.26-30.95-17.51-40.16C87.74,236,61.61,190.18,84,159.64,98.33,196.27,112.66,252.58,118.81,300ZM136.4,136.84c-10.53-4.75-25.64-1.85-39.19,6.38a57.61,57.61,0,0,0-13.08,10.65,184.79,184.79,0,0,0-8.19-17.6c-5.29-9.78-15.2-31.08-15-53.07,11.44-6.24,23.72-10,35.71-10h.23c20.24.26,53,11.59,61.66,88.38C153.8,151.65,146.66,141.47,136.4,136.84Zm33.25,18.71c-.06,1.7-.11,3.38-.17,5.06,0,.2-.06.4-.08.6h.07q-1,28.72-2.16,55.06c-.13-7.93-.3-16.08-.52-24.52-.05-2-.13-4-.21-5.91l.21-.05c0-.14-.11-.57-.26-1.23-1.62-35.84-8.13-60.82-16.87-78.13a90,90,0,0,0-7.43-12.27c-4.78-8.56-18.59-27.07-38.67-36.84a59.35,59.35,0,0,0-32.79-6.1c7.17-10,18.24-17.5,33.07-22.5,19-6.41,35-5.5,47.5,2.69C170,43.6,176.47,73.67,178,85.48,173.39,105.87,170.5,129.46,169.65,155.55Zm67.65-27.32c-28.58-4.4-45.24,10.88-54.17,24.48A90.24,90.24,0,0,0,173,174q.18-9.49.49-19.22c0-1.25.1-2.47.15-3.7,7.43-29.27,30.22-55,57.28-63.4,16.32-5.06,32.73-3.51,48.08,4.23a231.32,231.32,0,0,1-4.27,37.73c-2.51,13.06-5.65,27-9.06,41.16C262.16,147,253.81,130.77,237.29,128.23ZM262.4,322.09l-4.63,11.71c1-9.27,2-18.79,3-28.36,4.62-45,9.59-93.35,5.79-128.22,4-16.27,7.66-32.27,10.52-47.17a236,236,0,0,0,4.26-37c.94.51,1.87,1,2.8,1.61,15.59,39.58,1.44,105.74-10.32,157.57-6.16,27.18-11.49,50.65-11.49,65.28C262.31,319.09,262.36,320.59,262.4,322.09Zm13.67-69.3C287.43,202.7,301.88,139,289.35,98.14a101.17,101.17,0,0,1,17.05,15.54c26.58,30.1-6.83,114.57-42.27,204C264.13,303.36,269.94,279.83,276.07,252.79Z"/></g></g></svg>